<svg width="20" height="20" viewBox="0 0 20 20" fill="none" xmlns="http://www.w3.org/2000/svg">
<path d="M10 10.6243C7.35834 10.6243 5.20834 8.47435 5.20834 5.83268C5.20834 3.19102 7.35834 1.04102 10 1.04102C12.6417 1.04102 14.7917 3.19102 14.7917 5.83268C14.7917 8.47435 12.6417 10.6243 10 10.6243ZM10 2.29102C8.05001 2.29102 6.45834 3.88268 6.45834 5.83268C6.45834 7.78268 8.05001 9.37435 10 9.37435C11.95 9.37435 13.5417 7.78268 13.5417 5.83268C13.5417 3.88268 11.95 2.29102 10 2.29102Z" fill="#1D1D1D"/>
<path d="M17.1584 18.9583C16.8167 18.9583 16.5334 18.675 16.5334 18.3333C16.5334 15.4583 13.6002 13.125 10.0002 13.125C6.40012 13.125 3.4668 15.4583 3.4668 18.3333C3.4668 18.675 3.18346 18.9583 2.8418 18.9583C2.50013 18.9583 2.2168 18.675 2.2168 18.3333C2.2168 14.775 5.70846 11.875 10.0002 11.875C14.2918 11.875 17.7834 14.775 17.7834 18.3333C17.7834 18.675 17.5001 18.9583 17.1584 18.9583Z" fill="#1D1D1D"/>
</svg>
