<svg width="18" height="18" viewBox="0 0 18 18" fill="none" xmlns="http://www.w3.org/2000/svg">
<path d="M13.3875 16.875H4.61249C2.75624 16.875 1.23749 15.3562 1.23749 13.5V13.3875L1.57499 4.3875C1.63124 2.53125 3.14999 1.125 4.94999 1.125H13.05C14.85 1.125 16.3687 2.53125 16.425 4.3875L16.7625 13.3875C16.8187 14.2875 16.4812 15.1313 15.8625 15.8063C15.2437 16.4812 14.4 16.875 13.5 16.875C13.5 16.875 13.4437 16.875 13.3875 16.875ZM4.94999 2.25C3.71249 2.25 2.75624 3.20625 2.69999 4.3875L2.36249 13.5C2.36249 14.7375 3.37499 15.75 4.61249 15.75H13.5C14.1187 15.75 14.6812 15.4688 15.075 15.0188C15.4687 14.5688 15.6937 14.0062 15.6937 13.3875L15.3562 4.3875C15.3 3.15 14.3437 2.25 13.1062 2.25H4.94999Z" fill="#1D1D1D"/>
<path d="M9 7.875C6.80625 7.875 5.0625 6.13125 5.0625 3.9375C5.0625 3.6 5.2875 3.375 5.625 3.375C5.9625 3.375 6.1875 3.6 6.1875 3.9375C6.1875 5.5125 7.425 6.75 9 6.75C10.575 6.75 11.8125 5.5125 11.8125 3.9375C11.8125 3.6 12.0375 3.375 12.375 3.375C12.7125 3.375 12.9375 3.6 12.9375 3.9375C12.9375 6.13125 11.1937 7.875 9 7.875Z" fill="#1D1D1D"/>
</svg>
