<svg width="16" height="16" viewBox="0 0 16 16" fill="none" xmlns="http://www.w3.org/2000/svg">
<g clip-path="url(#clip0_7309_8819)">
<path d="M15.8483 15.1295L11.7174 11.0646C12.7992 9.8893 13.4638 8.33495 13.4638 6.62455C13.4633 2.96568 10.4496 0 6.73173 0C3.01385 0 0.000152588 2.96568 0.000152588 6.62455C0.000152588 10.2834 3.01385 13.2491 6.73173 13.2491C8.33811 13.2491 9.81144 12.6935 10.9687 11.7697L15.1157 15.8507C15.3178 16.0498 15.6458 16.0498 15.8479 15.8507C16.0504 15.6517 16.0504 15.3286 15.8483 15.1295ZM6.73173 12.2299C3.586 12.2299 1.0359 9.72029 1.0359 6.62455C1.0359 3.52881 3.586 1.01923 6.73173 1.01923C9.87748 1.01923 12.4276 3.52881 12.4276 6.62455C12.4276 9.72029 9.87748 12.2299 6.73173 12.2299Z" fill="#1D1D1D"/>
</g>
<defs>
<clipPath id="clip0_7309_8819">
<rect width="16" height="16" fill="white"/>
</clipPath>
</defs>
</svg>
