<svg width="18" height="18" viewBox="0 0 18 18" fill="none" xmlns="http://www.w3.org/2000/svg">
<path d="M12.7969 1.125C12.085 1.12583 11.3808 1.27249 10.7278 1.55595C10.0748 1.83941 9.48676 2.25365 9 2.77312C8.28667 2.01181 7.36095 1.48252 6.34301 1.25396C5.32508 1.0254 4.26194 1.10813 3.29161 1.49141C2.32128 1.87469 1.48858 2.54081 0.901615 3.40331C0.314645 4.26581 0.000513647 5.28484 0 6.32812C0 11.5087 8.35594 16.5938 8.71875 16.7934C8.80624 16.846 8.90637 16.8738 9.00844 16.8738C9.1105 16.8738 9.21064 16.846 9.29813 16.7934C9.64406 16.5938 18 11.5087 18 6.32812C17.9985 4.94863 17.4498 3.62606 16.4744 2.6506C15.4989 1.67515 14.1764 1.12649 12.7969 1.125ZM9 15.6488C7.54594 14.7206 1.125 10.3837 1.125 6.32812C1.12572 5.46186 1.40227 4.61833 1.91457 3.91978C2.42686 3.22123 3.14829 2.70396 3.9743 2.44294C4.8003 2.18191 5.68796 2.19069 6.50864 2.46801C7.32932 2.74533 8.04037 3.27677 8.53875 3.98531C8.59067 4.05901 8.65955 4.11916 8.73958 4.16067C8.8196 4.20218 8.90844 4.22385 8.99859 4.22385C9.08875 4.22385 9.17758 4.20218 9.25761 4.16067C9.33764 4.11916 9.40652 4.05901 9.45844 3.98531C9.9564 3.27555 10.6676 2.74296 11.4888 2.46486C12.31 2.18677 13.1985 2.17764 14.0253 2.4388C14.852 2.69997 15.574 3.21783 16.0865 3.91721C16.5989 4.6166 16.8751 5.4611 16.875 6.32812C16.875 10.3809 10.4541 14.7178 9 15.6488Z" fill="#1D1D1D"/>
</svg>
